<?xml version="1.0" encoding="UTF-8"?>
<svg version="1.1" xmlns="http://www.w3.org/2000/svg" width="500" height="500">
<path d="M0 0 C1.23401485 -0.00453111 2.46802971 -0.00906223 3.73943895 -0.01373065 C7.13458277 -0.02413757 10.52951333 -0.02571142 13.9246577 -0.02334189 C17.59834143 -0.02293132 21.27199434 -0.03399582 24.94566345 -0.04345703 C32.13247783 -0.06001707 39.31925938 -0.06556434 46.50609124 -0.06668179 C52.35379127 -0.06763479 58.20148055 -0.07175763 64.04917717 -0.07808304 C80.66028217 -0.09568305 97.27136141 -0.10492404 113.8824758 -0.10342209 C114.776587 -0.10334218 115.67069821 -0.10326227 116.59190369 -0.10317993 C117.93472494 -0.10305729 117.93472494 -0.10305729 119.3046739 -0.10293217 C133.79951123 -0.10211998 148.29424447 -0.12124411 162.78905172 -0.14945666 C177.70339793 -0.17825465 192.6176935 -0.19199312 207.53206819 -0.19026911 C215.89275191 -0.18960752 224.25332654 -0.19499793 232.61398506 -0.21662521 C239.73481837 -0.23492846 246.85549317 -0.23911007 253.97633994 -0.22560637 C257.60195937 -0.21912198 261.22727554 -0.21879278 264.85286522 -0.23631287 C295.2851764 -0.37401335 322.50837051 4.96578363 346.29527283 25.26742554 C347.08160095 25.90937866 347.86792908 26.55133179 348.67808533 27.21273804 C368.92683977 44.41465796 382.73384174 70.75832175 385.29527283 97.26742554 C385.44300169 101.295904 385.43879987 105.32188735 385.43571472 109.35273743 C385.44017141 111.17624854 385.44017141 111.17624854 385.44471812 113.03659827 C385.45187592 116.39897926 385.45457569 119.76130914 385.45531559 123.12369406 C385.45717248 126.75513693 385.4647231 130.38656887 385.47145081 134.01800537 C385.48501033 141.95436094 385.49105546 149.89071145 385.49546146 157.82707667 C385.49822858 162.78837551 385.50246684 167.7496724 385.50696564 172.71096992 C385.51915644 186.46318788 385.52945532 200.21540429 385.53284073 213.96762753 C385.53306029 214.84717245 385.53327986 215.72671737 385.53350608 216.63291517 C385.53372436 217.51450057 385.53394264 218.39608597 385.53416753 219.30438608 C385.53461099 221.09064988 385.53505755 222.87691369 385.5355072 224.66317749 C385.53572863 225.54921583 385.53595006 226.43525417 385.5361782 227.34814215 C385.54012208 241.68936709 385.5575644 256.03054108 385.58086672 270.37174635 C385.60463002 285.11644904 385.61704488 299.86112623 385.61820865 314.60584837 C385.61912275 322.87596733 385.62480773 331.14601994 385.64302826 339.41612053 C385.65849677 346.46169253 385.66351027 353.50717769 385.65529016 360.55276345 C385.65140705 364.14160696 385.65219725 367.73027596 385.6663475 371.31909752 C385.73151678 388.85731106 385.52642435 405.32672316 379.10777283 421.89242554 C378.65603699 423.0806189 378.65603699 423.0806189 378.19517517 424.29281616 C373.44692238 436.37927782 366.83206685 446.4629497 358.29527283 456.26742554 C357.79511658 456.90035522 357.29496033 457.53328491 356.77964783 458.18539429 C340.70055039 478.37667469 313.36983272 490.03656449 288.29527283 493.26742554 C284.06336251 493.52613027 279.84760082 493.54245739 275.60868835 493.52812195 C273.77876905 493.53386027 273.77876905 493.53386027 271.91188169 493.53971452 C268.56073692 493.54818625 265.20981404 493.54783457 261.8586762 493.54353392 C258.23072386 493.54105114 254.6027965 493.55010005 250.97485352 493.55757141 C243.88041785 493.5702781 236.7860201 493.57211711 229.69157496 493.56977115 C223.92015978 493.56798311 218.14875604 493.56974801 212.37734222 493.57399559 C211.55375466 493.57459078 210.73016709 493.57518597 209.88162233 493.57579919 C208.20810944 493.57701104 206.53459655 493.57822517 204.86108366 493.57944157 C189.18935804 493.59030183 173.51765397 493.58816195 157.84592715 493.58205672 C143.53734905 493.57689033 129.22883909 493.58813838 114.92027447 493.60715494 C100.19800932 493.62657001 85.47577634 493.63478283 70.75349832 493.63103169 C62.50022657 493.62912502 54.24701277 493.63155475 45.99375153 493.64574623 C38.96659325 493.65770796 31.9395286 493.65901164 24.91236892 493.64695606 C21.33362161 493.64110046 17.75504513 493.63987477 14.17630959 493.65195847 C-2.90292029 493.70572013 -19.19063803 493.57816671 -35.39222717 487.51742554 C-36.09371887 487.2606604 -36.79521057 487.00389526 -37.51795959 486.73934937 C-64.62964874 476.49195066 -86.36250879 455.57516415 -98.54945374 429.41415405 C-104.82437263 415.40050697 -107.8543623 401.52370983 -107.85189819 386.16397095 C-107.85557488 384.93422822 -107.85925157 383.70448549 -107.86303967 382.43747783 C-107.8721408 379.03109464 -107.87677057 375.62475952 -107.87942898 372.21836877 C-107.8833431 368.54119642 -107.89292084 364.86403788 -107.90164185 361.18687439 C-107.92137815 352.30823374 -107.93147023 343.429592 -107.94036964 334.55093491 C-107.94475839 330.36325833 -107.95012379 326.175583 -107.95535851 321.98790741 C-107.97237023 308.05473213 -107.98686145 294.12155763 -107.99410725 280.18837357 C-107.99601695 276.57491301 -107.99793731 272.96145247 -107.99989319 269.34799194 C-108.0006188 268.00092942 -108.0006188 268.00092942 -108.00135907 266.62665352 C-108.00964833 252.09917086 -108.0349668 237.57177082 -108.06747387 223.04432419 C-108.10062248 208.10754177 -108.11856316 193.17080122 -108.12175149 178.23398185 C-108.1239097 169.85644897 -108.13255656 161.47903648 -108.15821266 153.10153961 C-108.18002678 145.96229451 -108.18791798 138.82319905 -108.17824588 131.68392441 C-108.17373153 128.04820734 -108.17541758 124.41279829 -108.19500732 120.7771244 C-108.37344164 85.70459878 -99.97882746 56.46815988 -75.57972717 30.64242554 C-55.26789237 11.04378719 -28.16381855 -0.07687835 0 0 Z " fill="#000000" transform="translate(111.70472717285156,3.732574462890625)"/>
<path d="M0 0 C2.36101503 0.43529541 4.72234262 0.86889901 7.08398438 1.30078125 C12.78889393 2.34778154 18.48963902 3.41532979 24.1875 4.5 C24.41960874 10.53120065 23.5304571 16.1051152 22.4375 22.02734375 C22.25993164 23.01626114 22.08236328 24.00517853 21.89941406 25.02406311 C21.33446174 28.1629336 20.76111143 31.3002016 20.1875 34.4375 C19.8015267 36.5734672 19.41610407 38.70953398 19.03125 40.84570312 C18.08970545 46.06497187 17.14127281 51.28295279 16.1875 56.5 C18.8275 56.83 21.4675 57.16 24.1875 57.5 C24.36438472 63.04808393 23.70707824 68.12675911 22.69140625 73.57421875 C22.53840561 74.42047318 22.38540497 75.2667276 22.22776794 76.1386261 C21.74088936 78.82266065 21.24541449 81.50502943 20.75 84.1875 C20.4206924 86.00055457 20.09191119 87.81370484 19.76367188 89.62695312 C17.28553404 103.24408654 17.28553404 103.24408654 16.1875 107.5 C18.8275 107.83 21.4675 108.16 24.1875 108.5 C24.38367366 114.26400078 23.64322569 119.58174116 22.61328125 125.24609375 C22.44757126 126.17486832 22.28186127 127.10364288 22.11112976 128.06056213 C21.75864938 130.02361196 21.40293672 131.98608382 21.04418945 133.94799805 C20.50774117 136.89497391 19.98863808 139.84464387 19.47070312 142.79492188 C16.9267241 156.99880479 14.13232621 171.37022705 7.0625 184.125 C6.68561035 184.82028809 6.3087207 185.51557617 5.92041016 186.23193359 C1.78277163 193.61108658 -3.29679589 200.11026893 -8.8125 206.5 C-9.66714844 207.50740234 -9.66714844 207.50740234 -10.5390625 208.53515625 C-26.56232683 225.91423525 -52.65805318 238.35455665 -76.15852356 239.62702942 C-92.85479058 240.2594199 -108.45336522 238.15059597 -124.8125 235 C-127.15979406 234.56444979 -129.50745033 234.13084698 -131.85546875 233.69921875 C-137.5121628 232.65510362 -143.16399589 231.58750605 -148.8125 230.5 C-147.50892208 220.78443669 -145.92350226 211.14898863 -144.15307617 201.50952148 C-143.74352181 199.27718974 -143.33929984 197.04393444 -142.93554688 194.81054688 C-142.67478939 193.38015175 -142.41373324 191.94981102 -142.15234375 190.51953125 C-141.91894287 189.24182861 -141.68554199 187.96412598 -141.44506836 186.64770508 C-140.8125 183.5 -140.8125 183.5 -139.8125 180.5 C-142.4525 180.17 -145.0925 179.84 -147.8125 179.5 C-148.90361265 176.22666204 -148.7230412 174.98219902 -148.09985352 171.66137695 C-147.91959122 170.6805867 -147.73932892 169.69979645 -147.55360413 168.68928528 C-147.35157883 167.63295395 -147.14955353 166.57662262 -146.94140625 165.48828125 C-146.7402269 164.40491989 -146.53904755 163.32155853 -146.33177185 162.20536804 C-145.68653157 158.73972498 -145.03089273 155.2761412 -144.375 151.8125 C-143.93616357 149.46562285 -143.4980039 147.11861904 -143.06054688 144.77148438 C-141.98571807 139.01282933 -140.90234155 133.25583161 -139.8125 127.5 C-142.7825 127.17 -145.7525 126.84 -148.8125 126.5 C-147.36643029 115.57709163 -145.54347489 104.73533469 -143.57324219 93.89624023 C-143.23328316 92.01005262 -142.89992486 90.12266317 -142.57324219 88.23413086 C-140.00052461 73.37655798 -136.60048676 59.60089156 -128.4375 46.6875 C-128.0559375 46.06987793 -127.674375 45.45225586 -127.28125 44.81591797 C-111.34225106 19.48900698 -87.97099132 4.57038519 -59.52392578 -2.96264648 C-39.4828434 -6.9344115 -19.79070684 -3.76845408 0 0 Z " fill="#FE741F" transform="translate(407.8125,132.5)"/>
<path d="M0 0 C25.08 0 50.16 0 76 0 C76.04416828 30.6673967 76.08106674 61.33476246 76.10213066 92.00218108 C76.10463179 95.63044174 76.10722046 99.25870233 76.10986328 102.88696289 C76.1103879 103.609223 76.11091252 104.33148312 76.11145304 105.0756299 C76.12013349 116.73946936 76.13589033 128.40328892 76.15430559 140.06711661 C76.17307056 152.05323899 76.18413061 164.03935102 76.18817699 176.02548748 C76.19066458 182.75033886 76.19685268 189.47514248 76.21146011 196.19997978 C76.22512015 202.54054269 76.22920572 208.88104242 76.22621536 215.22161865 C76.22676178 217.53817654 76.23068869 219.85473673 76.23841095 222.17128181 C76.34264761 255.07802155 72.61606004 286.23505488 49.015625 311.08984375 C27.46073803 331.55077969 -3.07875025 336.62869084 -31.70703125 336.27734375 C-57.23898672 335.49563422 -80.46935488 325.08406068 -100 309 C-100.79148437 308.35546875 -101.58296875 307.7109375 -102.3984375 307.046875 C-104 305 -104 305 -103.81176758 302.95751953 C-102.65785171 298.75344832 -101.1457997 294.71193769 -99.61328125 290.6328125 C-99.27378952 289.72103241 -98.93429779 288.80925232 -98.58451843 287.86984253 C-97.86420462 285.93762595 -97.14205795 284.00609179 -96.41821289 282.07519531 C-95.32992045 279.17148017 -94.24745934 276.26564679 -93.16601562 273.359375 C-89.24620413 262.84956412 -85.23352024 252.38777616 -81 242 C-77.54544539 243.64229944 -75.01527243 245.60369852 -72.125 248.125 C-59.65749817 258.4423578 -47.49931224 264.32922848 -31 263 C-21.5179131 261.49550888 -14.83653106 257.71955027 -8.75 250.3125 C-2.44147421 241.37398935 -0.8536149 231.31768763 -0.84178162 220.66703796 C-0.83684364 219.7235488 -0.83190566 218.78005963 -0.82681805 217.80797988 C-0.81145413 214.64501895 -0.80308539 211.4820783 -0.79467773 208.3190918 C-0.78509835 206.05237144 -0.77508823 203.78565286 -0.76467896 201.51893616 C-0.73763044 195.3624152 -0.71662054 189.20588658 -0.69667697 183.04933906 C-0.67481713 176.61644069 -0.64742842 170.18356595 -0.62062073 163.75068665 C-0.57636875 152.95253485 -0.53553349 142.15437583 -0.49731445 131.35620117 C-0.45794193 120.23477227 -0.4165115 109.11335418 -0.37231445 97.99194336 C-0.36959018 97.30624799 -0.36686591 96.62055263 -0.36405908 95.91407862 C-0.35037931 92.47409526 -0.3366591 89.03411208 -0.32291877 85.59412897 C-0.20900829 57.06277438 -0.10299187 28.53139625 0 0 Z " fill="#FCFCFC" transform="translate(167,70)"/>
<path d="M0 0 C2.36101503 0.43529541 4.72234262 0.86889901 7.08398438 1.30078125 C12.78889393 2.34778154 18.48963902 3.41532979 24.1875 4.5 C24.41960874 10.53120065 23.5304571 16.1051152 22.4375 22.02734375 C22.25993164 23.01626114 22.08236328 24.00517853 21.89941406 25.02406311 C21.33446174 28.1629336 20.76111143 31.3002016 20.1875 34.4375 C19.8015267 36.5734672 19.41610407 38.70953398 19.03125 40.84570312 C18.08970545 46.06497187 17.14127281 51.28295279 16.1875 56.5 C18.8275 56.83 21.4675 57.16 24.1875 57.5 C24.36438472 63.04808393 23.70707824 68.12675911 22.69140625 73.57421875 C22.53840561 74.42047318 22.38540497 75.2667276 22.22776794 76.1386261 C21.74088936 78.82266065 21.24541449 81.50502943 20.75 84.1875 C20.4206924 86.00055457 20.09191119 87.81370484 19.76367188 89.62695312 C17.28553404 103.24408654 17.28553404 103.24408654 16.1875 107.5 C9.16174593 106.55557408 2.17871509 105.53861406 -4.78515625 104.2109375 C-19.26845334 101.4587982 -33.06651272 99.49158607 -47.8125 100.5 C-49.05515625 100.58378906 -50.2978125 100.66757813 -51.578125 100.75390625 C-76.92040928 103.50221334 -101.27637754 117.25966202 -117.8125 136.5 C-128.21562131 149.75501146 -135.00699881 164.4200537 -139.8125 180.5 C-142.4525 180.17 -145.0925 179.84 -147.8125 179.5 C-148.90361265 176.22666204 -148.7230412 174.98219902 -148.09985352 171.66137695 C-147.91959122 170.6805867 -147.73932892 169.69979645 -147.55360413 168.68928528 C-147.35157883 167.63295395 -147.14955353 166.57662262 -146.94140625 165.48828125 C-146.7402269 164.40491989 -146.53904755 163.32155853 -146.33177185 162.20536804 C-145.68653157 158.73972498 -145.03089273 155.2761412 -144.375 151.8125 C-143.93616357 149.46562285 -143.4980039 147.11861904 -143.06054688 144.77148438 C-141.98571807 139.01282933 -140.90234155 133.25583161 -139.8125 127.5 C-142.7825 127.17 -145.7525 126.84 -148.8125 126.5 C-147.36643029 115.57709163 -145.54347489 104.73533469 -143.57324219 93.89624023 C-143.23328316 92.01005262 -142.89992486 90.12266317 -142.57324219 88.23413086 C-140.00052461 73.37655798 -136.60048676 59.60089156 -128.4375 46.6875 C-128.0559375 46.06987793 -127.674375 45.45225586 -127.28125 44.81591797 C-111.34225106 19.48900698 -87.97099132 4.57038519 -59.52392578 -2.96264648 C-39.4828434 -6.9344115 -19.79070684 -3.76845408 0 0 Z " fill="#37B5FD" transform="translate(407.8125,132.5)"/>
<path d="M0 0 C1.96071127 0.32169442 3.92164894 0.642012 5.8828125 0.9609375 C13.75763791 2.25923575 21.52627028 3.59460371 29.25 5.625 C29.42688472 11.17308393 28.76957824 16.25175911 27.75390625 21.69921875 C27.60090561 22.54547318 27.44790497 23.3917276 27.29026794 24.2636261 C26.80338936 26.94766065 26.30791449 29.63002943 25.8125 32.3125 C25.4831924 34.12555457 25.15441119 35.93870484 24.82617188 37.75195312 C22.34803404 51.36908654 22.34803404 51.36908654 21.25 55.625 C14.22424593 54.68057408 7.24121509 53.66361406 0.27734375 52.3359375 C-14.20595334 49.5837982 -28.00401272 47.61658607 -42.75 48.625 C-43.99265625 48.70878906 -45.2353125 48.79257813 -46.515625 48.87890625 C-71.85790928 51.62721334 -96.21387754 65.38466202 -112.75 84.625 C-123.15312131 97.88001146 -129.94449881 112.5450537 -134.75 128.625 C-137.39 128.295 -140.03 127.965 -142.75 127.625 C-143.82018661 124.41444017 -143.69156099 123.23928701 -143.10083008 119.99267578 C-142.93347855 119.05384552 -142.76612701 118.11501526 -142.59370422 117.1477356 C-142.40422714 116.13218597 -142.21475006 115.11663635 -142.01953125 114.0703125 C-141.82783859 113.0177829 -141.63614594 111.9652533 -141.43864441 110.88082886 C-141.02945145 108.64578258 -140.61644402 106.41143186 -140.19995117 104.17773438 C-139.57182551 100.80014558 -138.95983671 97.41992478 -138.34960938 94.0390625 C-133.35950373 66.76228826 -133.35950373 66.76228826 -127.125 54.6875 C-126.78509033 54.02274658 -126.44518066 53.35799316 -126.0949707 52.6730957 C-113.27082684 28.33410192 -91.35452423 9.38142465 -65.06103516 0.98730469 C-43.33265522 -5.63675754 -22.11698107 -3.79233901 0 0 Z " fill="#5170FE" transform="translate(402.75,184.375)"/>
</svg>
